HIERARCHY
ROOT Hips
{
    OFFSET 0.0 0.0 0.0
    CHANNELS 6 Xposition Yposition Zposition Zrotation Xrotation Yrotation
    JOINT LeftHipJoint
    {
        OFFSET 0.1 0.0 0.0
        CHANNELS 3 Zrotation Xrotation Yrotation
        JOINT LeftUpLeg
        {
            OFFSET 123.19476169398439 0.0 0.0
            CHANNELS 3 Zrotation Xrotation Yrotation
            JOINT LeftLeg
            {
                OFFSET 0.0 0.0 -401.75727706858083
                CHANNELS 3 Zrotation Xrotation Yrotation
                JOINT LeftFoot
                {
                    OFFSET 0.0 0.0 -382.50204915789067
                    CHANNELS 3 Zrotation Xrotation Yrotation
                    End Site
                    {
                        OFFSET 0.0 -0.1 0.0
                    }
                }
            }
        }
    }
    JOINT LowerBack
    {
        OFFSET 0.0 0.0 0.1
        CHANNELS 3 Zrotation Xrotation Yrotation
        JOINT Spine
        {
            OFFSET 0.0 0.0 216.98498535628556
            CHANNELS 3 Zrotation Xrotation Yrotation
            JOINT Spine1
            {
                OFFSET 0.0 0.0 254.37725161530503
                CHANNELS 3 Zrotation Xrotation Yrotation
                JOINT LeftShoulder
                {
                    OFFSET 0.1 0.0 0.0
                    CHANNELS 3 Zrotation Xrotation Yrotation
                    JOINT LeftArm
                    {
                        OFFSET 145.88373741191015 0.0 0.0
                        CHANNELS 3 Zrotation Xrotation Yrotation
                        JOINT LeftForeArm
                        {
                            OFFSET 259.3153645490653 0.0 0.0
                            CHANNELS 3 Zrotation Xrotation Yrotation
                            JOINT LeftHand
                            {
                                OFFSET 239.4060554752784 0.0 0.0
                                CHANNELS 3 Zrotation Xrotation Yrotation
                                End Site
                                {
                                    OFFSET 0.1 0.0 0.0
                                }
                            }
                        }
                    }
                }
                JOINT Neck
                {
                    OFFSET 0.0 0.0 0.1
                    CHANNELS 3 Zrotation Xrotation Yrotation
                    JOINT Neck1
                    {
                        OFFSET 0.0 0.0 106.67088194418731
                        CHANNELS 3 Zrotation Xrotation Yrotation
                        End Site
                        {
                            OFFSET 0.0 0.0 114.65839397785216
                        }
                    }
                }
                JOINT RightShoulder
                {
                    OFFSET -0.1 0.0 0.0
                    CHANNELS 3 Zrotation Xrotation Yrotation
                    JOINT RightArm
                    {
                        OFFSET -145.88373741191015 0.0 0.0
                        CHANNELS 3 Zrotation Xrotation Yrotation
                        JOINT RightForeArm
                        {
                            OFFSET -259.3153645490653 0.0 0.0
                            CHANNELS 3 Zrotation Xrotation Yrotation
                            JOINT RightHand
                            {
                                OFFSET -239.4060554752784 0.0 0.0
                                CHANNELS 3 Zrotation Xrotation Yrotation
                                End Site
                                {
                                    OFFSET -0.1 0.0 0.0
                                }
                            }
                        }
                    }
                }
            }
        }
    }
    JOINT RightHipJoint
    {
        OFFSET -0.1 0.0 0.0
        CHANNELS 3 Zrotation Xrotation Yrotation
        JOINT RightUpLeg
        {
            OFFSET -123.19476169398439 0.0 0.0
            CHANNELS 3 Zrotation Xrotation Yrotation
            JOINT RightLeg
            {
                OFFSET 0.0 0.0 -401.75727706858083
                CHANNELS 3 Zrotation Xrotation Yrotation
                JOINT RightFoot
                {
                    OFFSET 0.0 0.0 -382.50204915789067
                    CHANNELS 3 Zrotation Xrotation Yrotation
                    End Site
                    {
                        OFFSET 0.0 -0.1 0.0
                    }
                }
            }
        }
    }
}
MOTION
Frames: 6
Frame Time: 0.03333333333333333
0.0 0.0 794.3802133560218 27.47832076814555 -8.579921527574657 4.091850053561183 0.0 0.0 0.0 0.42094364564727915 -11.075573846214512 1.4514125223119574 -0.45207526490151 31.80470682603131 -3.3636988570610162 0.0 0.0 0.0 0.0 0.0 0.0 0.08039297371535352 -2.153464236181217 2.5022767785409243 6.059308087268446 6.165331399170363e-16 3.6549467887632093e-16 0.0 0.0 3.9756933518293955e-16 -18.058847448497108 17.671937207683044 75.42174937259281 -15.7890189255838 -7.65391683160551e-15 1.6479486104250778e-15 4.586324512817743e-32 1.391492673140289e-15 -3.776908684237927e-15 0.0 0.0 3.9756933518293955e-16 -5.128920315136728 -2.3594355082524974 1.5699073884581207 0.0 0.0 3.9756933518293955e-16 26.459871507620274 -56.87840493282469 -12.5362402309604 100.4605636835675 8.200625599207965e-16 8.95851115152803e-15 0.0 0.0 0.0 0.0 0.0 0.0 0.014438707643660953 -0.4382855050133859 -3.9207191215579993 -2.378851852586478 21.370361702606978 0.929358261120825 0.0 0.0 3.975693351829396e-16
0.0 0.0 794.3802133560218 27.426599609157524 -8.818115147039169 4.040346794997018 0.0 -4.969616689786745e-17 0.0 0.4276182374169833 -11.22185668127509 1.440591457107879 -0.47435656644763896 32.494515085403876 -3.054376740281219 0.0 0.0 0.0 0.0 -4.969616689786745e-17 0.0 0.07550905310702105 -2.0191672971733547 2.6188459206055903 6.079804097975247 -5.161128613859001e-15 2.740876176605398e-16 0.0 0.0 0.0 -17.948835724297783 18.005630199702058 75.41893027325276 -16.35238716505822 -1.5690062550191327e-16 2.904701768074783e-14 -3.975693351829395e-16 2.7759332577581076e-32 -8.001082870556658e-15 0.0 0.0 0.0 -5.595424349993319 -2.9617600909890958 1.529470400919938 0.0 0.0 0.0 26.243750932096063 -56.94680736051096 -12.69540239975041 100.0841375965245 7.906300408036748e-16 8.96115666601219e-15 0.0 0.0 0.0 0.0 -4.969616689786745e-17 0.0 0.011577503186042237 -0.36753359359437354 -3.7842959012282202 -2.391312989838963 21.91102412703119 0.9760917791434162 0.0 0.0 -3.975693351829396e-16
0.0 0.0 794.3802133560218 27.397280024022347 -8.864802401515684 4.120995457134351 0.0 1.5405811738338909e-15 0.0 0.42834258943824816 -11.154275192609097 1.281715620508376 -0.5832761359689372 32.3708623074707 -2.736407013464513 0.0 0.0 3.975693351829396e-16 0.0 1.5405811738338909e-15 0.0 0.07860236011545874 -2.085563534044568 2.6608900960105353 6.236610041871751 -3.537268562955949e-16 8.155882493784828e-16 0.0 0.0 0.0 -17.457748455304255 17.824576389482058 75.27773094728177 -16.48993241316209 5.52311195520135e-15 -1.1778587818113573e-14 7.951386703658792e-16 -1.4483130040477084e-32 -2.087239009710433e-15 0.0 0.0 0.0 -6.149747939407949 -2.917219409799628 1.0592991325386043 0.0 0.0 0.0 25.908772934716353 -57.33641442868493 -13.289055402349554 99.45815738694823 4.111837806670584e-15 -4.853504113396054e-15 1.5902773407317584e-15 0.0 0.0 0.0 1.5405811738338909e-15 0.0 0.007282329035408874 -0.2522549233810456 -4.074154370173192 -2.510485768704345 21.866610115889905 1.3875554852128882 0.0 0.0 0.0
0.0 0.0 794.3802133560218 27.569918894563425 -9.06701318268002 4.163556301990996 0.0 0.0 0.0 0.39690009689426203 -11.166713909487047 1.2861392540438683 -0.4766434484626621 32.45241172385627 -2.8139914647446904 0.0 0.0 -1.1927080055488188e-15 0.0 0.0 0.0 0.0663391286138897 -1.9042739393899468 2.924081280485786 6.217774505493772 1.1909526614564053e-15 -6.468496479203116e-17 0.0 0.0 0.0 -18.00957534119072 18.15891594657026 75.20596938880739 -17.309517717073206 2.8928092189946645e-15 7.415089325433483e-15 -1.9878466759146963e-16 1.5902773407317578e-15 -8.274411788494928e-15 0.0 0.0 0.0 -6.681642690173531 -3.0247844717894496 1.4853344160737216 0.0 0.0 0.0 25.927782356408713 -58.088466515176826 -13.608025687531045 99.5649519087456 6.35737667665975e-15 2.2036606409417862e-14 -7.951386703658792e-16 0.0 0.0 0.0 0.0 0.0 0.00964863241286566 -0.34957035984208695 -4.050599387232389 -2.439066768173886 21.901783095809908 1.41310382875321 0.0 0.0 -3.975693351829396e-16
0.0 0.0 794.3802133560218 27.360528605782054 -9.179660536212507 4.025981710530913 0.0 0.0 0.0 0.3941688783327595 -10.937436328532934 1.4394657026199185 -0.39228102986491453 32.17397789237266 -2.9688824490252097 0.0 0.0 0.0 0.0 0.0 0.0 0.06324672802605491 -1.7900277646927163 3.2490561321635676 6.187292701045564 2.2961154323184318e-15 -1.7166960965514488e-15 0.0 0.0 0.0 -18.610566780510613 18.19973648738625 75.23668716599681 -17.73436263435935 2.256174116721365e-15 -6.724218432899591e-15 -7.951386703658792e-16 6.465683053784412e-33 -9.318031293350146e-16 0.0 0.0 0.0 -7.113104349335746 -3.1546673240863274 1.249027111598392 0.0 0.0 0.0 25.51979345414648 -58.38593415777945 -14.069170215196573 99.28243198593002 0.0 0.0 7.951386703658792e-16 0.0 0.0 0.0 0.0 0.0 0.002777948433034934 -0.1518590533047287 -3.844371637280362 -2.368558386263133 21.91688388163712 1.2640960290629313 -3.1805546814635168e-15 -1.1034765745125397e-32 3.975693351829396e-16
0.0 0.0 794.3802133560218 27.39930393724136 -9.072214325293618 4.133390278624329 0.0 0.0 0.0 0.38697103116457415 -10.994741309685947 1.3565054526055424 -0.4149963202936786 32.24658898604179 -3.007227735379311 0.0 0.0 3.9756933518293955e-16 0.0 0.0 0.0 0.06100002426777785 -1.768606001505484 3.149568809590599 6.294828783108142 -2.4214200070321557e-16 -7.830249681051768e-16 0.0 0.0 0.0 -17.388641229717535 17.91281086599107 75.05763873473741 -17.412471204563968 -8.033075159002538e-15 1.3060674394603627e-14 0.0 0.0 -4.969616689786745e-16 0.0 0.0 0.0 -7.350537151102397 -3.325129347822543 1.0255750735679605 0.0 0.0 0.0 25.241466771236105 -58.233345792592395 -14.295017522340046 98.78994991726715 6.2101043127177076e-15 -7.244167113007569e-15 -7.951386703658792e-16 0.0 0.0 0.0 0.0 0.0 -0.007852103284752346 0.15090012880915016 -4.003572000092334 -2.4070216679146372 21.86149695258 1.3623257736424412 0.0 0.0 0.0
